<?xml version="1.0" standalone="no"?>
<!DOCTYPE svg PUBLIC "-//W3C//DTD SVG 1.1//EN" "http://www.w3.org/Graphics/SVG/1.1/DTD/svg11.dtd">
<svg width="1630px" height="2050px" version="1.1" xmlns="http://www.w3.org/2000/svg">

<!-- This file is a systemd-analyze SVG file. It is best rendered in a   -->
<!-- browser such as Chrome, Chromium or Firefox. Other applications     -->
<!-- that render these files properly but much slower are ImageMagick,   -->
<!-- gimp, inkscape, etc. To display the files on your system, just      -->
<!-- point your browser to this file.                                    -->

<!-- This plot was generated by systemd-analyze version 239              -->

<defs>
  <style type="text/css">
    <![CDATA[
      rect       { stroke-width: 1; stroke-opacity: 0; }
      rect.background   { fill: rgb(255,255,255); }
      rect.activating   { fill: rgb(255,0,0); fill-opacity: 0.7; }
      rect.active       { fill: rgb(200,150,150); fill-opacity: 0.7; }
      rect.deactivating { fill: rgb(150,100,100); fill-opacity: 0.7; }
      rect.kernel       { fill: rgb(150,150,150); fill-opacity: 0.7; }
      rect.initrd       { fill: rgb(150,150,150); fill-opacity: 0.7; }
      rect.firmware     { fill: rgb(150,150,150); fill-opacity: 0.7; }
      rect.loader       { fill: rgb(150,150,150); fill-opacity: 0.7; }
      rect.userspace    { fill: rgb(150,150,150); fill-opacity: 0.7; }
      rect.security     { fill: rgb(144,238,144); fill-opacity: 0.7; }
      rect.generators   { fill: rgb(102,204,255); fill-opacity: 0.7; }
      rect.unitsload    { fill: rgb( 82,184,255); fill-opacity: 0.7; }
      rect.box   { fill: rgb(240,240,240); stroke: rgb(192,192,192); }
      line       { stroke: rgb(64,64,64); stroke-width: 1; }
//    line.sec1  { }
      line.sec5  { stroke-width: 2; }
      line.sec01 { stroke: rgb(224,224,224); stroke-width: 1; }
      text       { font-family: Verdana, Helvetica; font-size: 14px; }
      text.left  { font-family: Verdana, Helvetica; font-size: 14px; text-anchor: start; }
      text.right { font-family: Verdana, Helvetica; font-size: 14px; text-anchor: end; }
      text.sec   { font-size: 10px; }
    ]]>
   </style>
</defs>

<rect class="background" width="100%" height="100%" />
<text x="20" y="50">Startup finished in 386ms (kernel) + 1.513s (initrd) + 13.599s (userspace) = 15.500s
multi-user.target reached after 13.557s in userspace</text><text x="20" y="30">CentOS Linux 8 (Core) node1 (Linux 4.18.0-80.el8.x86_64 #1 SMP Tue Jun 4 09:19:46 UTC 2019) x86-64 oracle</text><g transform="translate(20.000,100)">
<rect class="box" x="0" y="0" width="1550.015" height="1800.000" />
  <line class="sec5" x1="0.000" y1="0" x2="0.000" y2="1800.000" />
  <text class="sec" x="0.000" y="-5.000" >0.0s</text>
  <line class="sec01" x1="10.000" y1="0" x2="10.000" y2="1800.000" />
  <line class="sec01" x1="20.000" y1="0" x2="20.000" y2="1800.000" />
  <line class="sec01" x1="30.000" y1="0" x2="30.000" y2="1800.000" />
  <line class="sec01" x1="40.000" y1="0" x2="40.000" y2="1800.000" />
  <line class="sec01" x1="50.000" y1="0" x2="50.000" y2="1800.000" />
  <line class="sec01" x1="60.000" y1="0" x2="60.000" y2="1800.000" />
  <line class="sec01" x1="70.000" y1="0" x2="70.000" y2="1800.000" />
  <line class="sec01" x1="80.000" y1="0" x2="80.000" y2="1800.000" />
  <line class="sec01" x1="90.000" y1="0" x2="90.000" y2="1800.000" />
  <line class="sec1" x1="100.000" y1="0" x2="100.000" y2="1800.000" />
  <text class="sec" x="100.000" y="-5.000" >1.0s</text>
  <line class="sec01" x1="110.000" y1="0" x2="110.000" y2="1800.000" />
  <line class="sec01" x1="120.000" y1="0" x2="120.000" y2="1800.000" />
  <line class="sec01" x1="130.000" y1="0" x2="130.000" y2="1800.000" />
  <line class="sec01" x1="140.000" y1="0" x2="140.000" y2="1800.000" />
  <line class="sec01" x1="150.000" y1="0" x2="150.000" y2="1800.000" />
  <line class="sec01" x1="160.000" y1="0" x2="160.000" y2="1800.000" />
  <line class="sec01" x1="170.000" y1="0" x2="170.000" y2="1800.000" />
  <line class="sec01" x1="180.000" y1="0" x2="180.000" y2="1800.000" />
  <line class="sec01" x1="190.000" y1="0" x2="190.000" y2="1800.000" />
  <line class="sec1" x1="200.000" y1="0" x2="200.000" y2="1800.000" />
  <text class="sec" x="200.000" y="-5.000" >2.0s</text>
  <line class="sec01" x1="210.000" y1="0" x2="210.000" y2="1800.000" />
  <line class="sec01" x1="220.000" y1="0" x2="220.000" y2="1800.000" />
  <line class="sec01" x1="230.000" y1="0" x2="230.000" y2="1800.000" />
  <line class="sec01" x1="240.000" y1="0" x2="240.000" y2="1800.000" />
  <line class="sec01" x1="250.000" y1="0" x2="250.000" y2="1800.000" />
  <line class="sec01" x1="260.000" y1="0" x2="260.000" y2="1800.000" />
  <line class="sec01" x1="270.000" y1="0" x2="270.000" y2="1800.000" />
  <line class="sec01" x1="280.000" y1="0" x2="280.000" y2="1800.000" />
  <line class="sec01" x1="290.000" y1="0" x2="290.000" y2="1800.000" />
  <line class="sec1" x1="300.000" y1="0" x2="300.000" y2="1800.000" />
  <text class="sec" x="300.000" y="-5.000" >3.0s</text>
  <line class="sec01" x1="310.000" y1="0" x2="310.000" y2="1800.000" />
  <line class="sec01" x1="320.000" y1="0" x2="320.000" y2="1800.000" />
  <line class="sec01" x1="330.000" y1="0" x2="330.000" y2="1800.000" />
  <line class="sec01" x1="340.000" y1="0" x2="340.000" y2="1800.000" />
  <line class="sec01" x1="350.000" y1="0" x2="350.000" y2="1800.000" />
  <line class="sec01" x1="360.000" y1="0" x2="360.000" y2="1800.000" />
  <line class="sec01" x1="370.000" y1="0" x2="370.000" y2="1800.000" />
  <line class="sec01" x1="380.000" y1="0" x2="380.000" y2="1800.000" />
  <line class="sec01" x1="390.000" y1="0" x2="390.000" y2="1800.000" />
  <line class="sec1" x1="400.000" y1="0" x2="400.000" y2="1800.000" />
  <text class="sec" x="400.000" y="-5.000" >4.0s</text>
  <line class="sec01" x1="410.000" y1="0" x2="410.000" y2="1800.000" />
  <line class="sec01" x1="420.000" y1="0" x2="420.000" y2="1800.000" />
  <line class="sec01" x1="430.000" y1="0" x2="430.000" y2="1800.000" />
  <line class="sec01" x1="440.000" y1="0" x2="440.000" y2="1800.000" />
  <line class="sec01" x1="450.000" y1="0" x2="450.000" y2="1800.000" />
  <line class="sec01" x1="460.000" y1="0" x2="460.000" y2="1800.000" />
  <line class="sec01" x1="470.000" y1="0" x2="470.000" y2="1800.000" />
  <line class="sec01" x1="480.000" y1="0" x2="480.000" y2="1800.000" />
  <line class="sec01" x1="490.000" y1="0" x2="490.000" y2="1800.000" />
  <line class="sec5" x1="500.000" y1="0" x2="500.000" y2="1800.000" />
  <text class="sec" x="500.000" y="-5.000" >5.0s</text>
  <line class="sec01" x1="510.000" y1="0" x2="510.000" y2="1800.000" />
  <line class="sec01" x1="520.000" y1="0" x2="520.000" y2="1800.000" />
  <line class="sec01" x1="530.000" y1="0" x2="530.000" y2="1800.000" />
  <line class="sec01" x1="540.000" y1="0" x2="540.000" y2="1800.000" />
  <line class="sec01" x1="550.000" y1="0" x2="550.000" y2="1800.000" />
  <line class="sec01" x1="560.000" y1="0" x2="560.000" y2="1800.000" />
  <line class="sec01" x1="570.000" y1="0" x2="570.000" y2="1800.000" />
  <line class="sec01" x1="580.000" y1="0" x2="580.000" y2="1800.000" />
  <line class="sec01" x1="590.000" y1="0" x2="590.000" y2="1800.000" />
  <line class="sec1" x1="600.000" y1="0" x2="600.000" y2="1800.000" />
  <text class="sec" x="600.000" y="-5.000" >6.0s</text>
  <line class="sec01" x1="610.000" y1="0" x2="610.000" y2="1800.000" />
  <line class="sec01" x1="620.000" y1="0" x2="620.000" y2="1800.000" />
  <line class="sec01" x1="630.000" y1="0" x2="630.000" y2="1800.000" />
  <line class="sec01" x1="640.000" y1="0" x2="640.000" y2="1800.000" />
  <line class="sec01" x1="650.000" y1="0" x2="650.000" y2="1800.000" />
  <line class="sec01" x1="660.000" y1="0" x2="660.000" y2="1800.000" />
  <line class="sec01" x1="670.000" y1="0" x2="670.000" y2="1800.000" />
  <line class="sec01" x1="680.000" y1="0" x2="680.000" y2="1800.000" />
  <line class="sec01" x1="690.000" y1="0" x2="690.000" y2="1800.000" />
  <line class="sec1" x1="700.000" y1="0" x2="700.000" y2="1800.000" />
  <text class="sec" x="700.000" y="-5.000" >7.0s</text>
  <line class="sec01" x1="710.000" y1="0" x2="710.000" y2="1800.000" />
  <line class="sec01" x1="720.000" y1="0" x2="720.000" y2="1800.000" />
  <line class="sec01" x1="730.000" y1="0" x2="730.000" y2="1800.000" />
  <line class="sec01" x1="740.000" y1="0" x2="740.000" y2="1800.000" />
  <line class="sec01" x1="750.000" y1="0" x2="750.000" y2="1800.000" />
  <line class="sec01" x1="760.000" y1="0" x2="760.000" y2="1800.000" />
  <line class="sec01" x1="770.000" y1="0" x2="770.000" y2="1800.000" />
  <line class="sec01" x1="780.000" y1="0" x2="780.000" y2="1800.000" />
  <line class="sec01" x1="790.000" y1="0" x2="790.000" y2="1800.000" />
  <line class="sec1" x1="800.000" y1="0" x2="800.000" y2="1800.000" />
  <text class="sec" x="800.000" y="-5.000" >8.0s</text>
  <line class="sec01" x1="810.000" y1="0" x2="810.000" y2="1800.000" />
  <line class="sec01" x1="820.000" y1="0" x2="820.000" y2="1800.000" />
  <line class="sec01" x1="830.000" y1="0" x2="830.000" y2="1800.000" />
  <line class="sec01" x1="840.000" y1="0" x2="840.000" y2="1800.000" />
  <line class="sec01" x1="850.000" y1="0" x2="850.000" y2="1800.000" />
  <line class="sec01" x1="860.000" y1="0" x2="860.000" y2="1800.000" />
  <line class="sec01" x1="870.000" y1="0" x2="870.000" y2="1800.000" />
  <line class="sec01" x1="880.000" y1="0" x2="880.000" y2="1800.000" />
  <line class="sec01" x1="890.000" y1="0" x2="890.000" y2="1800.000" />
  <line class="sec1" x1="900.000" y1="0" x2="900.000" y2="1800.000" />
  <text class="sec" x="900.000" y="-5.000" >9.0s</text>
  <line class="sec01" x1="910.000" y1="0" x2="910.000" y2="1800.000" />
  <line class="sec01" x1="920.000" y1="0" x2="920.000" y2="1800.000" />
  <line class="sec01" x1="930.000" y1="0" x2="930.000" y2="1800.000" />
  <line class="sec01" x1="940.000" y1="0" x2="940.000" y2="1800.000" />
  <line class="sec01" x1="950.000" y1="0" x2="950.000" y2="1800.000" />
  <line class="sec01" x1="960.000" y1="0" x2="960.000" y2="1800.000" />
  <line class="sec01" x1="970.000" y1="0" x2="970.000" y2="1800.000" />
  <line class="sec01" x1="980.000" y1="0" x2="980.000" y2="1800.000" />
  <line class="sec01" x1="990.000" y1="0" x2="990.000" y2="1800.000" />
  <line class="sec5" x1="1000.000" y1="0" x2="1000.000" y2="1800.000" />
  <text class="sec" x="1000.000" y="-5.000" >10.0s</text>
  <line class="sec01" x1="1010.000" y1="0" x2="1010.000" y2="1800.000" />
  <line class="sec01" x1="1020.000" y1="0" x2="1020.000" y2="1800.000" />
  <line class="sec01" x1="1030.000" y1="0" x2="1030.000" y2="1800.000" />
  <line class="sec01" x1="1040.000" y1="0" x2="1040.000" y2="1800.000" />
  <line class="sec01" x1="1050.000" y1="0" x2="1050.000" y2="1800.000" />
  <line class="sec01" x1="1060.000" y1="0" x2="1060.000" y2="1800.000" />
  <line class="sec01" x1="1070.000" y1="0" x2="1070.000" y2="1800.000" />
  <line class="sec01" x1="1080.000" y1="0" x2="1080.000" y2="1800.000" />
  <line class="sec01" x1="1090.000" y1="0" x2="1090.000" y2="1800.000" />
  <line class="sec1" x1="1100.000" y1="0" x2="1100.000" y2="1800.000" />
  <text class="sec" x="1100.000" y="-5.000" >11.0s</text>
  <line class="sec01" x1="1110.000" y1="0" x2="1110.000" y2="1800.000" />
  <line class="sec01" x1="1120.000" y1="0" x2="1120.000" y2="1800.000" />
  <line class="sec01" x1="1130.000" y1="0" x2="1130.000" y2="1800.000" />
  <line class="sec01" x1="1140.000" y1="0" x2="1140.000" y2="1800.000" />
  <line class="sec01" x1="1150.000" y1="0" x2="1150.000" y2="1800.000" />
  <line class="sec01" x1="1160.000" y1="0" x2="1160.000" y2="1800.000" />
  <line class="sec01" x1="1170.000" y1="0" x2="1170.000" y2="1800.000" />
  <line class="sec01" x1="1180.000" y1="0" x2="1180.000" y2="1800.000" />
  <line class="sec01" x1="1190.000" y1="0" x2="1190.000" y2="1800.000" />
  <line class="sec1" x1="1200.000" y1="0" x2="1200.000" y2="1800.000" />
  <text class="sec" x="1200.000" y="-5.000" >12.0s</text>
  <line class="sec01" x1="1210.000" y1="0" x2="1210.000" y2="1800.000" />
  <line class="sec01" x1="1220.000" y1="0" x2="1220.000" y2="1800.000" />
  <line class="sec01" x1="1230.000" y1="0" x2="1230.000" y2="1800.000" />
  <line class="sec01" x1="1240.000" y1="0" x2="1240.000" y2="1800.000" />
  <line class="sec01" x1="1250.000" y1="0" x2="1250.000" y2="1800.000" />
  <line class="sec01" x1="1260.000" y1="0" x2="1260.000" y2="1800.000" />
  <line class="sec01" x1="1270.000" y1="0" x2="1270.000" y2="1800.000" />
  <line class="sec01" x1="1280.000" y1="0" x2="1280.000" y2="1800.000" />
  <line class="sec01" x1="1290.000" y1="0" x2="1290.000" y2="1800.000" />
  <line class="sec1" x1="1300.000" y1="0" x2="1300.000" y2="1800.000" />
  <text class="sec" x="1300.000" y="-5.000" >13.0s</text>
  <line class="sec01" x1="1310.000" y1="0" x2="1310.000" y2="1800.000" />
  <line class="sec01" x1="1320.000" y1="0" x2="1320.000" y2="1800.000" />
  <line class="sec01" x1="1330.000" y1="0" x2="1330.000" y2="1800.000" />
  <line class="sec01" x1="1340.000" y1="0" x2="1340.000" y2="1800.000" />
  <line class="sec01" x1="1350.000" y1="0" x2="1350.000" y2="1800.000" />
  <line class="sec01" x1="1360.000" y1="0" x2="1360.000" y2="1800.000" />
  <line class="sec01" x1="1370.000" y1="0" x2="1370.000" y2="1800.000" />
  <line class="sec01" x1="1380.000" y1="0" x2="1380.000" y2="1800.000" />
  <line class="sec01" x1="1390.000" y1="0" x2="1390.000" y2="1800.000" />
  <line class="sec1" x1="1400.000" y1="0" x2="1400.000" y2="1800.000" />
  <text class="sec" x="1400.000" y="-5.000" >14.0s</text>
  <line class="sec01" x1="1410.000" y1="0" x2="1410.000" y2="1800.000" />
  <line class="sec01" x1="1420.000" y1="0" x2="1420.000" y2="1800.000" />
  <line class="sec01" x1="1430.000" y1="0" x2="1430.000" y2="1800.000" />
  <line class="sec01" x1="1440.000" y1="0" x2="1440.000" y2="1800.000" />
  <line class="sec01" x1="1450.000" y1="0" x2="1450.000" y2="1800.000" />
  <line class="sec01" x1="1460.000" y1="0" x2="1460.000" y2="1800.000" />
  <line class="sec01" x1="1470.000" y1="0" x2="1470.000" y2="1800.000" />
  <line class="sec01" x1="1480.000" y1="0" x2="1480.000" y2="1800.000" />
  <line class="sec01" x1="1490.000" y1="0" x2="1490.000" y2="1800.000" />
  <line class="sec5" x1="1500.000" y1="0" x2="1500.000" y2="1800.000" />
  <text class="sec" x="1500.000" y="-5.000" >15.0s</text>
  <line class="sec01" x1="1510.000" y1="0" x2="1510.000" y2="1800.000" />
  <line class="sec01" x1="1520.000" y1="0" x2="1520.000" y2="1800.000" />
  <line class="sec01" x1="1530.000" y1="0" x2="1530.000" y2="1800.000" />
  <line class="sec01" x1="1540.000" y1="0" x2="1540.000" y2="1800.000" />
  <line class="sec01" x1="1550.000" y1="0" x2="1550.000" y2="1800.000" />
  <rect class="kernel" x="0.000" y="0.000" width="38.680" height="19.000" />
  <text class="left" x="5.000" y="14.000">kernel</text>
  <rect class="initrd" x="38.680" y="20.000" width="151.347" height="19.000" />
  <text class="left" x="43.680" y="34.000">initrd</text>
  <rect class="active" x="190.027" y="40.000" width="1359.988" height="19.000" />
  <rect class="security" x="38.697" y="40.000" width="0.001" height="19.000" />
  <rect class="generators" x="39.327" y="40.000" width="2.595" height="19.000" />
  <rect class="unitsload" x="41.935" y="40.000" width="0.031" height="19.000" />
  <text class="left" x="195.027" y="54.000">systemd</text>
  <rect class="activating" x="236.837" y="60.000" width="7.678" height="19.000" />
  <rect class="active" x="244.516" y="60.000" width="1305.499" height="19.000" />
  <rect class="deactivating" x="1550.015" y="60.000" width="0.000" height="19.000" />
  <text class="left" x="241.837" y="74.000">systemd-journald.service (76ms)</text>
  <rect class="activating" x="236.855" y="80.000" width="0.000" height="19.000" />
  <rect class="active" x="236.855" y="80.000" width="1313.160" height="19.000" />
  <rect class="deactivating" x="1550.015" y="80.000" width="0.000" height="19.000" />
  <text class="left" x="241.855" y="94.000">systemd-initctl.socket</text>
  <rect class="activating" x="236.909" y="100.000" width="5.119" height="19.000" />
  <rect class="active" x="242.028" y="100.000" width="1307.987" height="19.000" />
  <rect class="deactivating" x="1550.015" y="100.000" width="0.000" height="19.000" />
  <text class="left" x="241.909" y="114.000">dev-mqueue.mount (51ms)</text>
  <rect class="activating" x="236.928" y="120.000" width="0.000" height="19.000" />
  <rect class="active" x="236.928" y="120.000" width="1313.087" height="19.000" />
  <rect class="deactivating" x="1550.015" y="120.000" width="0.000" height="19.000" />
  <text class="left" x="241.928" y="134.000">system-getty.slice</text>
  <rect class="activating" x="237.197" y="140.000" width="0.000" height="19.000" />
  <rect class="active" x="237.197" y="140.000" width="1312.818" height="19.000" />
  <rect class="deactivating" x="1550.015" y="140.000" width="0.000" height="19.000" />
  <text class="left" x="242.197" y="154.000">systemd-coredump.socket</text>
  <rect class="activating" x="237.804" y="160.000" width="0.000" height="19.000" />
  <rect class="active" x="237.804" y="160.000" width="1312.211" height="19.000" />
  <rect class="deactivating" x="1550.015" y="160.000" width="0.000" height="19.000" />
  <text class="left" x="242.804" y="174.000">systemd-ask-password-console.path</text>
  <rect class="activating" x="237.852" y="180.000" width="0.000" height="19.000" />
  <rect class="active" x="237.852" y="180.000" width="1312.163" height="19.000" />
  <rect class="deactivating" x="1550.015" y="180.000" width="0.000" height="19.000" />
  <text class="left" x="242.852" y="194.000">proc-sys-fs-binfmt_misc.automount</text>
  <rect class="activating" x="237.985" y="200.000" width="5.573" height="19.000" />
  <rect class="active" x="243.557" y="200.000" width="1306.457" height="19.000" />
  <rect class="deactivating" x="1550.015" y="200.000" width="0.000" height="19.000" />
  <text class="left" x="242.985" y="214.000">systemd-remount-fs.service (55ms)</text>
  <rect class="activating" x="238.113" y="220.000" width="0.000" height="19.000" />
  <rect class="active" x="238.113" y="220.000" width="1311.902" height="19.000" />
  <rect class="deactivating" x="1550.015" y="220.000" width="0.000" height="19.000" />
  <text class="left" x="243.113" y="234.000">systemd-ask-password-wall.path</text>
  <rect class="activating" x="238.116" y="240.000" width="0.000" height="19.000" />
  <rect class="active" x="238.116" y="240.000" width="1311.899" height="19.000" />
  <rect class="deactivating" x="1550.015" y="240.000" width="0.000" height="19.000" />
  <text class="left" x="243.116" y="254.000">cryptsetup.target</text>
  <rect class="activating" x="238.135" y="260.000" width="0.000" height="19.000" />
  <rect class="active" x="238.135" y="260.000" width="1311.880" height="19.000" />
  <rect class="deactivating" x="1550.015" y="260.000" width="0.000" height="19.000" />
  <text class="left" x="243.135" y="274.000">system-sshd\x2dkeygen.slice</text>
  <rect class="activating" x="238.213" y="280.000" width="0.000" height="19.000" />
  <rect class="active" x="238.213" y="280.000" width="1311.802" height="19.000" />
  <rect class="deactivating" x="1550.015" y="280.000" width="0.000" height="19.000" />
  <text class="left" x="243.213" y="294.000">systemd-udevd-control.socket</text>
  <rect class="activating" x="238.289" y="300.000" width="0.000" height="19.000" />
  <rect class="active" x="238.289" y="300.000" width="1311.726" height="19.000" />
  <rect class="deactivating" x="1550.015" y="300.000" width="0.000" height="19.000" />
  <text class="left" x="243.289" y="314.000">paths.target</text>
  <rect class="activating" x="238.504" y="320.000" width="4.888" height="19.000" />
  <rect class="active" x="243.392" y="320.000" width="1306.623" height="19.000" />
  <rect class="deactivating" x="1550.015" y="320.000" width="0.000" height="19.000" />
  <text class="left" x="243.504" y="334.000">dev-hugepages.mount (48ms)</text>
  <rect class="activating" x="239.245" y="340.000" width="0.000" height="19.000" />
  <rect class="active" x="239.245" y="340.000" width="1310.770" height="19.000" />
  <rect class="deactivating" x="1550.015" y="340.000" width="0.000" height="19.000" />
  <text class="left" x="244.245" y="354.000">rpcbind.socket</text>
  <rect class="activating" x="239.258" y="360.000" width="0.000" height="19.000" />
  <rect class="active" x="239.258" y="360.000" width="1310.757" height="19.000" />
  <rect class="deactivating" x="1550.015" y="360.000" width="0.000" height="19.000" />
  <text class="left" x="244.258" y="374.000">rpcbind.target</text>
  <rect class="activating" x="239.480" y="380.000" width="3.974" height="19.000" />
  <rect class="active" x="243.454" y="380.000" width="1306.561" height="19.000" />
  <rect class="deactivating" x="1550.015" y="380.000" width="0.000" height="19.000" />
  <text class="left" x="244.480" y="394.000">kmod-static-nodes.service (39ms)</text>
  <rect class="activating" x="239.858" y="400.000" width="6.315" height="19.000" />
  <rect class="active" x="246.173" y="400.000" width="1303.842" height="19.000" />
  <rect class="deactivating" x="1550.015" y="400.000" width="0.000" height="19.000" />
  <text class="left" x="244.858" y="414.000">systemd-sysctl.service (63ms)</text>
  <rect class="activating" x="239.914" y="420.000" width="4.691" height="19.000" />
  <rect class="active" x="244.605" y="420.000" width="1305.410" height="19.000" />
  <rect class="deactivating" x="1550.015" y="420.000" width="0.000" height="19.000" />
  <text class="left" x="244.914" y="434.000">nis-domainname.service (46ms)</text>
  <rect class="activating" x="239.931" y="440.000" width="0.000" height="19.000" />
  <rect class="active" x="239.931" y="440.000" width="1310.084" height="19.000" />
  <rect class="deactivating" x="1550.015" y="440.000" width="0.000" height="19.000" />
  <text class="left" x="244.931" y="454.000">user.slice</text>
  <rect class="activating" x="239.934" y="460.000" width="0.000" height="19.000" />
  <rect class="active" x="239.934" y="460.000" width="1310.081" height="19.000" />
  <rect class="deactivating" x="1550.015" y="460.000" width="0.000" height="19.000" />
  <text class="left" x="244.934" y="474.000">slices.target</text>
  <rect class="activating" x="240.000" y="480.000" width="4.695" height="19.000" />
  <rect class="active" x="244.695" y="480.000" width="1305.320" height="19.000" />
  <rect class="deactivating" x="1550.015" y="480.000" width="0.000" height="19.000" />
  <text class="left" x="245.000" y="494.000">sys-kernel-debug.mount (46ms)</text>
  <rect class="activating" x="241.867" y="500.000" width="0.000" height="19.000" />
  <rect class="active" x="241.867" y="500.000" width="1308.148" height="19.000" />
  <rect class="deactivating" x="1550.015" y="500.000" width="0.000" height="19.000" />
  <text class="left" x="246.867" y="514.000">systemd-udevd-kernel.socket</text>
  <rect class="activating" x="241.923" y="520.000" width="21.806" height="19.000" />
  <rect class="active" x="263.728" y="520.000" width="1286.287" height="19.000" />
  <rect class="deactivating" x="1550.015" y="520.000" width="0.000" height="19.000" />
  <text class="left" x="246.923" y="534.000">systemd-udev-trigger.service (218ms)</text>
  <rect class="activating" x="244.808" y="540.000" width="3.648" height="19.000" />
  <rect class="active" x="248.456" y="540.000" width="1301.559" height="19.000" />
  <rect class="deactivating" x="1550.015" y="540.000" width="0.000" height="19.000" />
  <text class="left" x="249.808" y="554.000">systemd-random-seed.service (36ms)</text>
  <rect class="activating" x="244.906" y="560.000" width="53.581" height="19.000" />
  <rect class="active" x="298.486" y="560.000" width="1251.529" height="19.000" />
  <rect class="deactivating" x="1550.015" y="560.000" width="0.000" height="19.000" />
  <text class="left" x="249.906" y="574.000">systemd-hwdb-update.service (535ms)</text>
  <rect class="activating" x="245.040" y="580.000" width="3.524" height="19.000" />
  <rect class="active" x="248.564" y="580.000" width="1301.451" height="19.000" />
  <rect class="deactivating" x="1550.015" y="580.000" width="0.000" height="19.000" />
  <text class="left" x="250.040" y="594.000">swapfile.swap (35ms)</text>
  <rect class="activating" x="245.549" y="600.000" width="6.181" height="19.000" />
  <rect class="active" x="251.731" y="600.000" width="1298.284" height="19.000" />
  <rect class="deactivating" x="1550.015" y="600.000" width="0.000" height="19.000" />
  <text class="left" x="250.549" y="614.000">systemd-sysusers.service (61ms)</text>
  <rect class="activating" x="246.117" y="620.000" width="4.118" height="19.000" />
  <rect class="active" x="250.234" y="620.000" width="1299.781" height="19.000" />
  <rect class="deactivating" x="1550.015" y="620.000" width="0.000" height="19.000" />
  <text class="left" x="251.117" y="634.000">systemd-journal-flush.service (41ms)</text>
  <rect class="activating" x="248.570" y="640.000" width="0.000" height="19.000" />
  <rect class="active" x="248.570" y="640.000" width="1301.445" height="19.000" />
  <rect class="deactivating" x="1550.015" y="640.000" width="0.000" height="19.000" />
  <text class="left" x="253.570" y="654.000">swap.target</text>
  <rect class="activating" x="251.797" y="660.000" width="5.525" height="19.000" />
  <rect class="active" x="257.322" y="660.000" width="1292.693" height="19.000" />
  <rect class="deactivating" x="1550.015" y="660.000" width="0.000" height="19.000" />
  <text class="left" x="256.797" y="674.000">systemd-tmpfiles-setup-dev.service (55ms)</text>
  <rect class="activating" x="257.337" y="680.000" width="0.000" height="19.000" />
  <rect class="active" x="257.337" y="680.000" width="1292.678" height="19.000" />
  <rect class="deactivating" x="1550.015" y="680.000" width="0.000" height="19.000" />
  <text class="left" x="262.337" y="694.000">local-fs-pre.target</text>
  <rect class="activating" x="257.340" y="700.000" width="0.000" height="19.000" />
  <rect class="active" x="257.340" y="700.000" width="1292.675" height="19.000" />
  <rect class="deactivating" x="1550.015" y="700.000" width="0.000" height="19.000" />
  <text class="left" x="262.340" y="714.000">local-fs.target</text>
  <rect class="activating" x="257.404" y="720.000" width="4.052" height="19.000" />
  <rect class="active" x="261.456" y="720.000" width="1288.559" height="19.000" />
  <rect class="deactivating" x="1550.015" y="720.000" width="0.000" height="19.000" />
  <text class="left" x="262.404" y="734.000">systemd-machine-id-commit.service (40ms)</text>
  <rect class="activating" x="257.460" y="740.000" width="5.586" height="19.000" />
  <rect class="active" x="263.046" y="740.000" width="1286.969" height="19.000" />
  <rect class="deactivating" x="1550.015" y="740.000" width="0.000" height="19.000" />
  <text class="left" x="262.460" y="754.000">systemd-journal-catalog-update.service (55ms)</text>
  <rect class="activating" x="257.512" y="760.000" width="1.615" height="19.000" />
  <rect class="active" x="259.128" y="760.000" width="1290.887" height="19.000" />
  <rect class="deactivating" x="1550.015" y="760.000" width="0.000" height="19.000" />
  <text class="left" x="262.512" y="774.000">dracut-shutdown.service (16ms)</text>
  <rect class="activating" x="257.563" y="780.000" width="20.280" height="19.000" />
  <rect class="active" x="277.843" y="780.000" width="1272.172" height="19.000" />
  <rect class="deactivating" x="1550.015" y="780.000" width="0.000" height="19.000" />
  <text class="left" x="262.563" y="794.000">ldconfig.service (202ms)</text>
  <rect class="activating" x="257.614" y="800.000" width="11.957" height="19.000" />
  <rect class="active" x="269.571" y="800.000" width="1280.444" height="19.000" />
  <rect class="deactivating" x="1550.015" y="800.000" width="0.000" height="19.000" />
  <text class="left" x="262.614" y="814.000">import-state.service (119ms)</text>
  <rect class="activating" x="269.637" y="820.000" width="9.303" height="19.000" />
  <rect class="active" x="278.940" y="820.000" width="1271.075" height="19.000" />
  <rect class="deactivating" x="1550.015" y="820.000" width="0.000" height="19.000" />
  <text class="left" x="274.637" y="834.000">systemd-tmpfiles-setup.service (93ms)</text>
  <rect class="activating" x="279.001" y="840.000" width="15.952" height="19.000" />
  <rect class="active" x="294.953" y="840.000" width="1255.062" height="19.000" />
  <rect class="deactivating" x="1550.015" y="840.000" width="0.000" height="19.000" />
  <text class="left" x="284.001" y="854.000">auditd.service (159ms)</text>
  <rect class="activating" x="279.068" y="860.000" width="9.829" height="19.000" />
  <rect class="active" x="288.897" y="860.000" width="1261.118" height="19.000" />
  <rect class="deactivating" x="1550.015" y="860.000" width="0.000" height="19.000" />
  <text class="left" x="284.068" y="874.000">var-lib-nfs-rpc_pipefs.mount (98ms)</text>
  <rect class="activating" x="279.171" y="880.000" width="6.099" height="19.000" />
  <rect class="active" x="285.270" y="880.000" width="1264.745" height="19.000" />
  <rect class="deactivating" x="1550.015" y="880.000" width="0.000" height="19.000" />
  <text class="left" x="284.171" y="894.000">rpcbind.service (60ms)</text>
  <rect class="activating" x="288.909" y="900.000" width="0.000" height="19.000" />
  <rect class="active" x="288.909" y="900.000" width="1261.106" height="19.000" />
  <rect class="deactivating" x="1550.015" y="900.000" width="0.000" height="19.000" />
  <text class="left" x="293.909" y="914.000">rpc_pipefs.target</text>
  <rect class="activating" x="295.037" y="920.000" width="1.614" height="19.000" />
  <rect class="active" x="296.651" y="920.000" width="1253.364" height="19.000" />
  <rect class="deactivating" x="1550.015" y="920.000" width="0.000" height="19.000" />
  <text class="left" x="300.037" y="934.000">systemd-update-utmp.service (16ms)</text>
  <rect class="activating" x="298.558" y="940.000" width="2.505" height="19.000" />
  <rect class="active" x="301.063" y="940.000" width="1248.952" height="19.000" />
  <rect class="deactivating" x="1550.015" y="940.000" width="0.000" height="19.000" />
  <text class="left" x="303.558" y="954.000">systemd-update-done.service (25ms)</text>
  <rect class="activating" x="298.624" y="960.000" width="4.483" height="19.000" />
  <rect class="active" x="303.107" y="960.000" width="1246.908" height="19.000" />
  <rect class="deactivating" x="1550.015" y="960.000" width="0.000" height="19.000" />
  <text class="left" x="303.624" y="974.000">systemd-udevd.service (44ms)</text>
  <rect class="activating" x="303.119" y="980.000" width="0.000" height="19.000" />
  <rect class="active" x="303.119" y="980.000" width="1246.896" height="19.000" />
  <rect class="deactivating" x="1550.015" y="980.000" width="0.000" height="19.000" />
  <text class="left" x="308.119" y="994.000">sysinit.target</text>
  <rect class="activating" x="303.123" y="1000.000" width="0.000" height="19.000" />
  <rect class="active" x="303.123" y="1000.000" width="1246.892" height="19.000" />
  <rect class="deactivating" x="1550.015" y="1000.000" width="0.000" height="19.000" />
  <text class="left" x="308.123" y="1014.000">systemd-tmpfiles-clean.timer</text>
  <rect class="activating" x="303.186" y="1020.000" width="0.000" height="19.000" />
  <rect class="active" x="303.186" y="1020.000" width="1246.829" height="19.000" />
  <rect class="deactivating" x="1550.015" y="1020.000" width="0.000" height="19.000" />
  <text class="left" x="308.186" y="1034.000">dbus.socket</text>
  <rect class="activating" x="303.193" y="1040.000" width="0.000" height="19.000" />
  <rect class="active" x="303.193" y="1040.000" width="1246.822" height="19.000" />
  <rect class="deactivating" x="1550.015" y="1040.000" width="0.000" height="19.000" />
  <text class="left" x="308.193" y="1054.000">dnf-makecache.timer</text>
  <rect class="activating" x="303.218" y="1060.000" width="0.000" height="19.000" />
  <rect class="active" x="303.218" y="1060.000" width="1246.797" height="19.000" />
  <rect class="deactivating" x="1550.015" y="1060.000" width="0.000" height="19.000" />
  <text class="left" x="308.218" y="1074.000">sssd-kcm.socket</text>
  <rect class="activating" x="303.221" y="1080.000" width="0.000" height="19.000" />
  <rect class="active" x="303.221" y="1080.000" width="1246.794" height="19.000" />
  <rect class="deactivating" x="1550.015" y="1080.000" width="0.000" height="19.000" />
  <text class="left" x="308.221" y="1094.000">sockets.target</text>
  <rect class="activating" x="303.223" y="1100.000" width="0.000" height="19.000" />
  <rect class="active" x="303.223" y="1100.000" width="1246.792" height="19.000" />
  <rect class="deactivating" x="1550.015" y="1100.000" width="0.000" height="19.000" />
  <text class="left" x="308.223" y="1114.000">basic.target</text>
  <rect class="activating" x="303.335" y="1120.000" width="31.643" height="19.000" />
  <rect class="active" x="334.978" y="1120.000" width="0.000" height="19.000" />
  <rect class="deactivating" x="334.978" y="1120.000" width="0.000" height="19.000" />
  <text class="left" x="308.335" y="1134.000">sshd-keygen@ed25519.service (316ms)</text>
  <rect class="activating" x="303.480" y="1140.000" width="0.000" height="19.000" />
  <rect class="active" x="303.480" y="1140.000" width="8.462" height="19.000" />
  <rect class="deactivating" x="311.941" y="1140.000" width="0.000" height="19.000" />
  <text class="left" x="308.480" y="1154.000">irqbalance.service</text>
  <rect class="activating" x="303.586" y="1160.000" width="34.462" height="19.000" />
  <rect class="active" x="338.048" y="1160.000" width="1211.967" height="19.000" />
  <rect class="deactivating" x="1550.015" y="1160.000" width="0.000" height="19.000" />
  <text class="left" x="308.586" y="1174.000">chronyd.service (344ms)</text>
  <rect class="activating" x="303.905" y="1180.000" width="0.000" height="19.000" />
  <rect class="active" x="303.905" y="1180.000" width="1246.110" height="19.000" />
  <rect class="deactivating" x="1550.015" y="1180.000" width="0.000" height="19.000" />
  <text class="left" x="308.905" y="1194.000">rngd.service</text>
  <rect class="activating" x="303.983" y="1200.000" width="83.363" height="19.000" />
  <rect class="active" x="387.346" y="1200.000" width="1162.668" height="19.000" />
  <rect class="deactivating" x="1550.015" y="1200.000" width="0.000" height="19.000" />
  <text class="left" x="308.983" y="1214.000">sssd.service (833ms)</text>
  <rect class="activating" x="304.016" y="1220.000" width="0.000" height="19.000" />
  <rect class="active" x="304.016" y="1220.000" width="1245.998" height="19.000" />
  <rect class="deactivating" x="1550.015" y="1220.000" width="0.000" height="19.000" />
  <text class="left" x="309.016" y="1234.000">unbound-anchor.timer</text>
  <rect class="activating" x="304.025" y="1240.000" width="0.000" height="19.000" />
  <rect class="active" x="304.025" y="1240.000" width="1245.990" height="19.000" />
  <rect class="deactivating" x="1550.015" y="1240.000" width="0.000" height="19.000" />
  <text class="left" x="309.025" y="1254.000">timers.target</text>
  <rect class="activating" x="304.080" y="1260.000" width="19.239" height="19.000" />
  <rect class="active" x="323.319" y="1260.000" width="1226.696" height="19.000" />
  <rect class="deactivating" x="1550.015" y="1260.000" width="0.000" height="19.000" />
  <text class="left" x="309.080" y="1274.000">gssproxy.service (192ms)</text>
  <rect class="activating" x="305.642" y="1280.000" width="0.000" height="19.000" />
  <rect class="active" x="305.642" y="1280.000" width="1244.373" height="19.000" />
  <rect class="deactivating" x="1550.015" y="1280.000" width="0.000" height="19.000" />
  <text class="left" x="310.642" y="1294.000">dbus.service</text>
  <rect class="activating" x="308.083" y="1300.000" width="27.204" height="19.000" />
  <rect class="active" x="335.287" y="1300.000" width="0.000" height="19.000" />
  <rect class="deactivating" x="335.287" y="1300.000" width="0.000" height="19.000" />
  <text class="left" x="313.083" y="1314.000">sshd-keygen@ecdsa.service (272ms)</text>
  <rect class="activating" x="310.166" y="1320.000" width="54.597" height="19.000" />
  <rect class="active" x="364.763" y="1320.000" width="0.000" height="19.000" />
  <rect class="deactivating" x="364.763" y="1320.000" width="0.000" height="19.000" />
  <text class="left" x="315.166" y="1334.000">sshd-keygen@rsa.service (545ms)</text>
  <rect class="activating" x="310.233" y="1340.000" width="64.559" height="19.000" />
  <rect class="active" x="374.792" y="1340.000" width="1175.223" height="19.000" />
  <rect class="deactivating" x="1550.015" y="1340.000" width="0.000" height="19.000" />
  <text class="left" x="315.233" y="1354.000">polkit.service (645ms)</text>
  <rect class="activating" x="323.444" y="1360.000" width="0.000" height="19.000" />
  <rect class="active" x="323.444" y="1360.000" width="1226.571" height="19.000" />
  <rect class="deactivating" x="1550.015" y="1360.000" width="0.000" height="19.000" />
  <text class="left" x="328.444" y="1374.000">nfs-client.target</text>
  <rect class="activating" x="323.458" y="1380.000" width="0.000" height="19.000" />
  <rect class="active" x="323.458" y="1380.000" width="1226.557" height="19.000" />
  <rect class="deactivating" x="1550.015" y="1380.000" width="0.000" height="19.000" />
  <text class="left" x="328.458" y="1394.000">remote-fs-pre.target</text>
  <rect class="activating" x="323.470" y="1400.000" width="0.000" height="19.000" />
  <rect class="active" x="323.470" y="1400.000" width="1226.545" height="19.000" />
  <rect class="deactivating" x="1550.015" y="1400.000" width="0.000" height="19.000" />
  <text class="left" x="328.470" y="1414.000">remote-fs.target</text>
  <rect class="activating" x="340.877" y="1420.000" width="0.000" height="19.000" />
  <rect class="active" x="340.877" y="1420.000" width="1209.138" height="19.000" />
  <rect class="deactivating" x="1550.015" y="1420.000" width="0.000" height="19.000" />
  <text class="left" x="345.877" y="1434.000">network.target</text>
  <rect class="activating" x="340.930" y="1440.000" width="162.040" height="19.000" />
  <rect class="active" x="502.970" y="1440.000" width="1047.045" height="19.000" />
  <rect class="deactivating" x="1550.015" y="1440.000" width="0.000" height="19.000" />
  <text class="left" x="345.930" y="1454.000">tuned.service (1.620s)</text>
  <rect class="activating" x="375.964" y="1460.000" width="0.000" height="19.000" />
  <rect class="active" x="375.964" y="1460.000" width="1174.051" height="19.000" />
  <rect class="deactivating" x="1550.015" y="1460.000" width="0.000" height="19.000" />
  <text class="left" x="380.964" y="1474.000">sshd-keygen.target</text>
  <rect class="activating" x="376.776" y="1480.000" width="10.896" height="19.000" />
  <rect class="active" x="387.672" y="1480.000" width="1162.343" height="19.000" />
  <rect class="deactivating" x="1550.015" y="1480.000" width="0.000" height="19.000" />
  <text class="left" x="381.776" y="1494.000">sshd.service (108ms)</text>
  <rect class="activating" x="387.370" y="1500.000" width="0.000" height="19.000" />
  <rect class="active" x="387.370" y="1500.000" width="1162.644" height="19.000" />
  <rect class="deactivating" x="1550.015" y="1500.000" width="0.000" height="19.000" />
  <text class="left" x="392.370" y="1514.000">nss-user-lookup.target</text>
  <rect class="activating" x="387.438" y="1520.000" width="20.034" height="19.000" />
  <rect class="active" x="407.472" y="1520.000" width="1142.542" height="19.000" />
  <rect class="deactivating" x="1550.015" y="1520.000" width="0.000" height="19.000" />
  <text class="left" x="392.438" y="1534.000">systemd-logind.service (200ms)</text>
  <rect class="activating" x="387.494" y="1540.000" width="8.753" height="19.000" />
  <rect class="active" x="396.247" y="1540.000" width="1153.768" height="19.000" />
  <rect class="deactivating" x="1550.015" y="1540.000" width="0.000" height="19.000" />
  <text class="left" x="392.494" y="1554.000">systemd-user-sessions.service (87ms)</text>
  <rect class="activating" x="396.345" y="1560.000" width="0.000" height="19.000" />
  <rect class="active" x="396.345" y="1560.000" width="1153.669" height="19.000" />
  <rect class="deactivating" x="1550.015" y="1560.000" width="0.000" height="19.000" />
  <text class="left" x="401.345" y="1574.000">crond.service</text>
  <rect class="activating" x="396.428" y="1580.000" width="0.000" height="19.000" />
  <rect class="active" x="396.428" y="1580.000" width="1153.587" height="19.000" />
  <rect class="deactivating" x="1550.015" y="1580.000" width="0.000" height="19.000" />
  <text class="left" x="401.428" y="1594.000">getty@tty1.service</text>
  <rect class="activating" x="396.473" y="1600.000" width="0.000" height="19.000" />
  <rect class="active" x="396.473" y="1600.000" width="1153.542" height="19.000" />
  <rect class="deactivating" x="1550.015" y="1600.000" width="0.000" height="19.000" />
  <text class="left" x="401.473" y="1614.000">getty.target</text>
  <rect class="activating" x="494.994" y="1620.000" width="0.000" height="19.000" />
  <rect class="active" x="494.994" y="1620.000" width="1055.021" height="19.000" />
  <rect class="deactivating" x="1550.015" y="1620.000" width="0.000" height="19.000" />
  <text class="left" x="499.994" y="1634.000">sys-devices-pci0000:00-0000:00:05.0-sound-card0.device</text>
  <rect class="activating" x="495.008" y="1640.000" width="0.000" height="19.000" />
  <rect class="active" x="495.008" y="1640.000" width="1055.007" height="19.000" />
  <rect class="deactivating" x="1550.015" y="1640.000" width="0.000" height="19.000" />
  <text class="left" x="500.008" y="1654.000">sound.target</text>
  <rect class="activating" x="1143.685" y="1660.000" width="0.000" height="19.000" />
  <rect class="active" x="1143.685" y="1660.000" width="406.330" height="19.000" />
  <rect class="deactivating" x="1550.015" y="1660.000" width="0.000" height="19.000" />
  <text class="right" x="1138.685" y="1674.000">system-user\x2druntime\x2ddir.slice</text>
  <rect class="activating" x="1541.704" y="1680.000" width="0.000" height="19.000" />
  <rect class="active" x="1541.704" y="1680.000" width="8.311" height="19.000" />
  <rect class="deactivating" x="1550.015" y="1680.000" width="0.000" height="19.000" />
  <text class="right" x="1536.704" y="1694.000">network-online.target</text>
  <rect class="activating" x="1541.846" y="1700.000" width="3.939" height="19.000" />
  <rect class="active" x="1545.785" y="1700.000" width="4.230" height="19.000" />
  <rect class="deactivating" x="1550.015" y="1700.000" width="0.000" height="19.000" />
  <text class="right" x="1536.846" y="1714.000">rsyslog.service (39ms)</text>
  <rect class="activating" x="1541.907" y="1720.000" width="8.043" height="19.000" />
  <rect class="active" x="1549.950" y="1720.000" width="0.000" height="19.000" />
  <rect class="deactivating" x="1549.950" y="1720.000" width="0.000" height="19.000" />
  <text class="right" x="1536.907" y="1734.000">kdump.service (80ms)</text>
  <rect class="activating" x="1541.964" y="1740.000" width="1.798" height="19.000" />
  <rect class="active" x="1543.762" y="1740.000" width="6.252" height="19.000" />
  <rect class="deactivating" x="1550.015" y="1740.000" width="0.000" height="19.000" />
  <text class="right" x="1536.964" y="1754.000">rpc-statd-notify.service (17ms)</text>
  <rect class="activating" x="1545.806" y="1760.000" width="0.000" height="19.000" />
  <rect class="active" x="1545.806" y="1760.000" width="4.208" height="19.000" />
  <rect class="deactivating" x="1550.015" y="1760.000" width="0.000" height="19.000" />
  <text class="right" x="1540.806" y="1774.000">multi-user.target</text>
  <rect class="activating" x="1545.877" y="1780.000" width="1.134" height="19.000" />
  <rect class="active" x="1547.011" y="1780.000" width="0.000" height="19.000" />
  <rect class="deactivating" x="1547.011" y="1780.000" width="0.000" height="19.000" />
  <text class="right" x="1540.877" y="1794.000">systemd-update-utmp-runlevel.service (11ms)</text>
</g>
<g transform="translate(20,100)">
  <rect class="activating" x="0.000" y="1820.000" width="30.000" height="19.000" />
  <text class="left" x="45.000" y="1834.000">Activating</text>
  <rect class="active" x="0.000" y="1840.000" width="30.000" height="19.000" />
  <text class="left" x="45.000" y="1854.000">Active</text>
  <rect class="deactivating" x="0.000" y="1860.000" width="30.000" height="19.000" />
  <text class="left" x="45.000" y="1874.000">Deactivating</text>
  <rect class="security" x="0.000" y="1880.000" width="30.000" height="19.000" />
  <text class="left" x="45.000" y="1894.000">Setting up security module</text>
  <rect class="generators" x="0.000" y="1900.000" width="30.000" height="19.000" />
  <text class="left" x="45.000" y="1914.000">Generators</text>
  <rect class="unitsload" x="0.000" y="1920.000" width="30.000" height="19.000" />
  <text class="left" x="45.000" y="1934.000">Loading unit files</text>
</g>

</svg>
